<svg xmlns="http://www.w3.org/2000/svg" viewBox="0 0 1100 688" preserveAspectRatio="xMidYMid slice">
  <title>Eingerichtete Büroetage vor der Firmenauflösung</title>
  <!-- Raum-Basis: identisch mit buero-nachher.svg -->
  <rect width="1100" height="520" fill="#E7E5E0"/>
  <rect y="520" width="1100" height="168" fill="#D7D3CA"/>
  <line x1="0" y1="520" x2="1100" y2="520" stroke="#BBB7AC" stroke-width="2"/>
  <line x1="220" y1="520" x2="220" y2="688" stroke="#C6C2B7" stroke-width="2"/>
  <line x1="440" y1="520" x2="440" y2="688" stroke="#C6C2B7" stroke-width="2"/>
  <line x1="660" y1="520" x2="660" y2="688" stroke="#C6C2B7" stroke-width="2"/>
  <line x1="880" y1="520" x2="880" y2="688" stroke="#C6C2B7" stroke-width="2"/>
  <line x1="0" y1="604" x2="1100" y2="604" stroke="#C6C2B7" stroke-width="2"/>
  <rect x="70" y="80" width="960" height="240" fill="#F2EFE9" stroke="#141414" stroke-width="2.5"/>
  <rect x="86" y="96" width="928" height="208" fill="#D8DFE4"/>
  <rect x="120" y="240" width="60" height="64" fill="#C3CDD3"/>
  <rect x="200" y="260" width="44" height="44" fill="#C3CDD3"/>
  <rect x="720" y="250" width="70" height="54" fill="#C3CDD3"/>
  <rect x="900" y="232" width="50" height="72" fill="#C3CDD3"/>
  <line x1="318" y1="96" x2="318" y2="304" stroke="#F2EFE9" stroke-width="10"/>
  <line x1="550" y1="96" x2="550" y2="304" stroke="#F2EFE9" stroke-width="10"/>
  <line x1="782" y1="96" x2="782" y2="304" stroke="#F2EFE9" stroke-width="10"/>
  <line x1="340" y1="0" x2="340" y2="26" stroke="#141414" stroke-width="2"/>
  <line x1="740" y1="0" x2="740" y2="26" stroke="#141414" stroke-width="2"/>
  <rect x="240" y="26" width="200" height="16" fill="#141414"/>
  <rect x="640" y="26" width="200" height="16" fill="#141414"/>
  <!-- Einrichtung -->
  <rect x="30" y="470" width="90" height="66" fill="#CDAF7E" stroke="#141414" stroke-width="2.5"/>
  <line x1="75" y1="470" x2="75" y2="536" stroke="#FF4D00" stroke-width="6"/>
  <rect x="38" y="410" width="74" height="60" fill="#C4A576" stroke="#141414" stroke-width="2.5"/>
  <line x1="38" y1="426" x2="112" y2="426" stroke="#141414" stroke-width="2"/>
  <rect x="210" y="348" width="110" height="70" fill="#141414"/>
  <rect x="258" y="418" width="14" height="14" fill="#141414"/>
  <rect x="120" y="430" width="300" height="18" fill="#B9AD98" stroke="#141414" stroke-width="2.5"/>
  <rect x="132" y="448" width="14" height="120" fill="#8E8272" stroke="#141414" stroke-width="2"/>
  <rect x="394" y="448" width="14" height="120" fill="#8E8272" stroke="#141414" stroke-width="2"/>
  <rect x="240" y="420" width="84" height="10" fill="#F2EFE9" stroke="#141414" stroke-width="1.5"/>
  <rect x="540" y="370" width="16" height="104" rx="6" fill="#BE5227" stroke="#141414" stroke-width="2"/>
  <rect x="470" y="470" width="96" height="16" rx="4" fill="#BE5227" stroke="#141414" stroke-width="2"/>
  <rect x="508" y="486" width="10" height="60" fill="#141414"/>
  <path d="M468 556 h90 l-10 12 h-70 z" fill="#141414"/>
  <rect x="730" y="348" width="110" height="70" fill="#141414"/>
  <rect x="778" y="418" width="14" height="14" fill="#141414"/>
  <rect x="640" y="430" width="300" height="18" fill="#B9AD98" stroke="#141414" stroke-width="2.5"/>
  <rect x="652" y="448" width="14" height="120" fill="#8E8272" stroke="#141414" stroke-width="2"/>
  <rect x="914" y="448" width="14" height="120" fill="#8E8272" stroke="#141414" stroke-width="2"/>
  <rect x="860" y="410" width="70" height="8" fill="#F2EFE9" stroke="#141414" stroke-width="1.5"/>
  <rect x="864" y="402" width="60" height="8" fill="#F2EFE9" stroke="#141414" stroke-width="1.5"/>
  <rect x="868" y="394" width="54" height="8" fill="#F2EFE9" stroke="#141414" stroke-width="1.5"/>
  <rect x="1040" y="376" width="16" height="100" rx="6" fill="#8E8272" stroke="#141414" stroke-width="2"/>
  <rect x="964" y="476" width="92" height="16" rx="4" fill="#8E8272" stroke="#141414" stroke-width="2"/>
  <rect x="1000" y="492" width="10" height="56" fill="#141414"/>
  <path d="M962 548 h86 l-10 12 h-66 z" fill="#141414"/>
</svg>
