<svg xmlns="http://www.w3.org/2000/svg" viewBox="0 0 1100 688" preserveAspectRatio="xMidYMid slice">
  <title>Leere Büroetage nach der Firmenauflösung, besenrein</title>
  <!-- Raum-Basis: identisch mit buero-vorher.svg -->
  <rect width="1100" height="520" fill="#E7E5E0"/>
  <rect y="520" width="1100" height="168" fill="#D7D3CA"/>
  <line x1="0" y1="520" x2="1100" y2="520" stroke="#BBB7AC" stroke-width="2"/>
  <line x1="220" y1="520" x2="220" y2="688" stroke="#C6C2B7" stroke-width="2"/>
  <line x1="440" y1="520" x2="440" y2="688" stroke="#C6C2B7" stroke-width="2"/>
  <line x1="660" y1="520" x2="660" y2="688" stroke="#C6C2B7" stroke-width="2"/>
  <line x1="880" y1="520" x2="880" y2="688" stroke="#C6C2B7" stroke-width="2"/>
  <line x1="0" y1="604" x2="1100" y2="604" stroke="#C6C2B7" stroke-width="2"/>
  <rect x="70" y="80" width="960" height="240" fill="#F2EFE9" stroke="#141414" stroke-width="2.5"/>
  <rect x="86" y="96" width="928" height="208" fill="#D8DFE4"/>
  <rect x="120" y="240" width="60" height="64" fill="#C3CDD3"/>
  <rect x="200" y="260" width="44" height="44" fill="#C3CDD3"/>
  <rect x="720" y="250" width="70" height="54" fill="#C3CDD3"/>
  <rect x="900" y="232" width="50" height="72" fill="#C3CDD3"/>
  <line x1="318" y1="96" x2="318" y2="304" stroke="#F2EFE9" stroke-width="10"/>
  <line x1="550" y1="96" x2="550" y2="304" stroke="#F2EFE9" stroke-width="10"/>
  <line x1="782" y1="96" x2="782" y2="304" stroke="#F2EFE9" stroke-width="10"/>
  <line x1="340" y1="0" x2="340" y2="26" stroke="#141414" stroke-width="2"/>
  <line x1="740" y1="0" x2="740" y2="26" stroke="#141414" stroke-width="2"/>
  <rect x="240" y="26" width="200" height="16" fill="#141414"/>
  <rect x="640" y="26" width="200" height="16" fill="#141414"/>
  <!-- Besenrein: angelehnter Besen -->
  <line x1="1000" y1="220" x2="966" y2="548" stroke="#8A6B42" stroke-width="7" stroke-linecap="round"/>
  <path d="M944 542 l50 10 -12 56 -56 -12 z" fill="#D9A441" stroke="#141414" stroke-width="2"/>
  <line x1="950" y1="556" x2="940" y2="590" stroke="#141414" stroke-width="1.5"/>
  <line x1="966" y1="559" x2="956" y2="593" stroke="#141414" stroke-width="1.5"/>
  <line x1="982" y1="562" x2="972" y2="596" stroke="#141414" stroke-width="1.5"/>
</svg>
